<svg width="64" height="64" viewBox="0 0 64 64" fill="none" xmlns="http://www.w3.org/2000/svg">
<path d="M59.156 31.5625L33.4122 5.83747C33.2268 5.65175 33.0067 5.5044 32.7643 5.40387C32.5219 5.30333 32.2621 5.25159 31.9997 5.25159C31.7373 5.25159 31.4775 5.30333 31.2351 5.40387C30.9927 5.5044 30.7726 5.65175 30.5872 5.83747L4.84346 31.5625C4.09346 32.3125 3.66846 33.3312 3.66846 34.3937C3.66846 36.6 5.46221 38.3937 7.66846 38.3937H10.381V56.75C10.381 57.8562 11.2747 58.75 12.381 58.75H27.9997V44.75H34.9997V58.75H51.6185C52.7247 58.75 53.6185 57.8562 53.6185 56.75V38.3937H56.331C57.3935 38.3937 58.4122 37.975 59.1622 37.2187C60.7185 35.6562 60.7185 33.125 59.156 31.5625Z" fill="white"/>
</svg>
