<svg width="1383" height="898" viewBox="0 0 1383 898" fill="none" xmlns="http://www.w3.org/2000/svg">
<g opacity="0.4">
<path d="M461.956 206.48C461.956 135.364 519.253 77.3526 590.102 76.2092C660.935 75.0557 720.331 131.661 722.475 202.475C723.206 226.597 717.306 249.309 706.519 268.967C702.519 276.243 703.776 285.324 709.774 291.058C742.359 322.124 762.688 365.906 762.688 414.383C762.688 500.505 698.457 571.917 615.398 583.247L565.821 582.765C484.344 570.039 421.812 499.387 421.812 414.383C421.812 365.919 442.136 322.134 474.713 291.058C480.739 285.308 481.943 276.197 477.932 268.886C467.764 250.344 461.956 229.086 461.956 206.48Z" fill="#432A2A"/>
<path d="M655.735 431.376L613.489 474.124V493.508C613.489 493.802 613.489 494.06 613.441 494.357V937.864H563.904V466.197L563.734 466.067V314.562C563.734 300.649 574.674 289.704 588.586 289.704C602.499 289.704 613.489 300.646 613.489 314.562V403.55L620.907 396.594C630.366 386.626 646.231 386.626 655.735 396.594C665.658 406.005 665.658 421.915 655.735 431.376Z" fill="#2C1B1B"/>
<path d="M536.129 494.342C532.123 501.653 533.322 510.765 539.346 516.509C571.928 547.588 592.255 591.367 592.255 639.834C592.255 724.84 529.715 795.49 448.24 808.216L398.668 808.701C315.604 797.366 251.373 725.956 251.373 639.834C251.373 591.36 271.708 547.578 304.287 516.509C310.285 510.78 311.54 501.694 307.539 494.423C296.752 474.768 290.853 452.053 291.581 427.929C293.73 357.117 353.124 300.509 423.961 301.665C494.801 302.811 552.105 360.816 552.105 431.932C552.105 454.54 546.3 475.802 536.129 494.342Z" fill="#4A2F2F"/>
<path d="M490.521 663.211L448.273 705.961V725.35C448.273 725.644 448.273 725.897 448.225 726.194V937.864H398.69V698.031L398.518 697.899V546.399C398.518 532.486 409.457 521.542 423.373 521.542C437.288 521.542 448.273 532.483 448.273 546.399V635.382L455.696 628.429C465.154 618.46 481.014 618.46 490.521 628.429C500.441 637.852 500.441 653.755 490.521 663.211Z" fill="#2C1B1B"/>
<path d="M256.707 674.088L214.13 717.168V736.707C214.13 737.004 214.13 737.26 214.083 737.558V950.858H164.166V709.18L163.993 709.048V556.379C163.993 542.36 175.015 531.333 189.037 531.333C203.061 531.333 214.131 542.36 214.131 556.379V646.048L221.612 639.042C231.145 628.996 247.126 628.996 256.708 639.042C266.702 648.531 266.702 664.559 256.707 674.088Z" fill="#2C1B1B"/>
<path d="M313.731 829.264L275.697 757.604L263.732 735.066L251.768 712.527L206.856 627.92C203.185 621.002 195.996 616.681 188.168 616.681C180.338 616.681 173.152 621.002 169.478 627.919L56.6333 840.501C53.1518 847.06 53.3639 854.961 57.1885 861.326C61.0145 867.688 67.8978 871.578 75.3197 871.578H167.003H188.16H209.319H301.004H301.034C312.718 871.578 322.191 862.108 322.191 850.421C322.191 846.446 321.092 842.726 319.188 839.549L313.731 829.264Z" fill="#493131"/>
<path d="M299.946 737.589L266.085 673.8L255.434 653.734L244.782 633.669L204.803 558.352C201.535 552.194 195.137 548.346 188.168 548.346C181.197 548.346 174.8 552.195 171.529 558.35L71.0767 747.591C67.9774 753.43 68.1669 760.464 71.5717 766.129C74.9765 771.795 81.103 775.255 87.7124 775.255H169.329H188.165H207H288.618H288.642C299.048 775.255 307.479 766.825 307.479 756.421C307.479 752.883 306.504 749.571 304.809 746.743L299.946 737.589Z" fill="#493131"/>
<path d="M291.124 645.23L259.936 586.473L250.125 567.993L240.314 549.511L203.492 480.138C200.481 474.466 194.588 470.921 188.17 470.921C181.75 470.921 175.857 474.466 172.844 480.137L80.3197 654.444C77.4671 659.821 77.6401 666.3 80.7756 671.519C83.914 676.737 89.5561 679.926 95.6434 679.926H170.816H188.167H205.514H280.693H280.714C290.296 679.926 298.063 672.161 298.063 662.579C298.063 659.32 297.163 656.27 295.603 653.664L291.124 645.23Z" fill="#493131"/>
<path d="M1203.29 482.362L1133.46 553.013V585.058C1133.46 585.544 1133.46 585.963 1133.38 586.452V936.264H1051.52V539.913L1051.23 539.696V289.319C1051.23 266.327 1069.31 248.244 1092.3 248.244C1115.31 248.244 1133.46 266.327 1133.46 289.319V436.377L1145.73 424.886C1161.36 408.41 1187.57 408.41 1203.29 424.886C1219.68 440.448 1219.68 466.734 1203.29 482.362Z" fill="#2C1B1B"/>
<path d="M1322.22 713.431L1252.51 582.106L1230.59 540.801L1208.66 499.496L1126.36 344.444C1119.62 331.767 1106.45 323.846 1092.11 323.846C1077.76 323.846 1064.59 331.767 1057.86 344.442L851.057 734.025C844.679 746.044 845.066 760.525 852.076 772.186C859.089 783.85 871.702 790.976 885.303 790.976H1053.33H1092.1H1130.87H1298.9H1298.95C1320.36 790.976 1337.72 773.625 1337.72 752.205C1337.72 744.923 1335.72 738.103 1332.22 732.283L1322.22 713.431Z" fill="#3F2929"/>
<path d="M1296.95 545.425L1234.9 428.52L1215.38 391.75L1195.86 354.981L1122.59 216.954C1116.61 205.673 1104.88 198.618 1092.11 198.618C1079.33 198.618 1067.61 205.67 1061.62 216.954L877.533 563.759C871.853 574.46 872.2 587.35 878.438 597.733C884.678 608.116 895.908 614.46 908.018 614.46H1057.59H1092.11H1126.62H1276.2H1276.24C1295.31 614.46 1310.76 599.011 1310.76 579.948C1310.76 573.461 1308.97 567.393 1305.86 562.212L1296.95 545.425Z" fill="#3F2929"/>
<path d="M1280.78 376.168L1223.63 268.489L1205.65 234.621L1187.68 200.75L1120.19 73.6175C1114.67 63.2246 1103.87 56.7278 1092.11 56.7278C1080.34 56.7278 1069.54 63.2246 1064.02 73.6175L894.464 393.048C889.236 402.903 889.556 414.777 895.298 424.343C901.05 433.904 911.391 439.747 922.544 439.747H1060.31H1092.11H1123.89H1261.67H1261.71C1279.27 439.747 1293.5 425.517 1293.5 407.957C1293.5 401.983 1291.86 396.392 1288.99 391.622L1280.78 376.168Z" fill="#3F2929"/>
<path d="M989.466 482.362L919.639 553.013V585.058C919.639 585.544 919.639 585.963 919.563 586.452V936.264H837.698V539.913L837.414 539.696V289.319C837.414 266.327 855.491 248.244 878.487 248.244C901.486 248.244 919.642 266.327 919.642 289.319V436.377L931.91 424.886C947.544 408.41 973.753 408.41 989.468 424.886C1005.86 440.448 1005.86 466.734 989.466 482.362Z" fill="#2C1B1B"/>
<path d="M1082.99 736.85L1020.61 619.328L1000.99 582.366L981.366 545.401L907.71 406.646C901.689 395.301 889.9 388.214 877.062 388.214C864.221 388.214 852.437 395.301 846.411 406.644L661.345 755.279C655.636 766.035 655.984 778.994 662.256 789.431C668.53 799.866 679.819 806.244 691.991 806.244H842.352H877.05H911.749H1062.11H1062.16C1081.32 806.244 1096.86 790.714 1096.86 771.547C1096.86 765.028 1095.06 758.929 1091.93 753.717L1082.99 736.85Z" fill="#493131"/>
<path d="M1060.38 586.504L1004.85 481.889L987.379 448.98L969.91 416.075L904.345 292.554C898.985 282.455 888.491 276.146 877.062 276.146C865.63 276.146 855.139 282.457 849.775 292.552L685.033 602.907C679.95 612.483 680.261 624.019 685.845 633.309C691.429 642.601 701.476 648.276 712.316 648.276H846.167H877.057H907.947H1041.8H1041.84C1058.91 648.276 1072.73 634.451 1072.73 617.389C1072.73 611.585 1071.13 606.154 1068.35 601.516L1060.38 586.504Z" fill="#493131"/>
<path d="M1045.91 435.034L994.761 338.673L978.671 308.365L962.581 278.055L902.193 164.284C897.255 154.982 887.59 149.168 877.064 149.168C866.536 149.168 856.871 154.982 851.931 164.281L700.19 450.145C695.512 458.964 695.796 469.588 700.938 478.148C706.085 486.705 715.338 491.936 725.321 491.936H848.605H877.059H905.509H1028.8H1028.84C1044.55 491.936 1057.29 479.202 1057.29 463.486C1057.29 458.142 1055.81 453.14 1053.25 448.867L1045.91 435.034Z" fill="#493131"/>
</g>
</svg>
